<mxfile host="Electron" modified="2024-04-12T16:01:04.922Z" agent="Mozilla/5.0 (Windows NT 10.0; Win64; x64) AppleWebKit/537.36 (KHTML, like Gecko) draw.io/24.1.0 Chrome/120.0.6099.109 Electron/28.1.0 Safari/537.36" etag="SKKkrWET8SCy_Sn_9tuZ" version="24.1.0" type="device">
  <diagram name="Pagina-1" id="-MVrwELJsgAgIXyly0wF">
    <mxGraphModel dx="1877" dy="655" grid="1" gridSize="10" guides="1" tooltips="1" connect="1" arrows="1" fold="1" page="1" pageScale="1" pageWidth="827" pageHeight="1169" math="0" shadow="0">
      <root>
        <mxCell id="0" />
        <mxCell id="1" parent="0" />
        <mxCell id="JPYUiOiGbo7IQ6j7rUsW-7" style="edgeStyle=orthogonalEdgeStyle;rounded=0;orthogonalLoop=1;jettySize=auto;html=1;entryX=0;entryY=0.5;entryDx=0;entryDy=0;" edge="1" parent="1" source="JPYUiOiGbo7IQ6j7rUsW-2" target="JPYUiOiGbo7IQ6j7rUsW-5">
          <mxGeometry relative="1" as="geometry" />
        </mxCell>
        <mxCell id="JPYUiOiGbo7IQ6j7rUsW-15" style="edgeStyle=orthogonalEdgeStyle;rounded=0;orthogonalLoop=1;jettySize=auto;html=1;entryX=0;entryY=0.5;entryDx=0;entryDy=0;" edge="1" parent="1" source="JPYUiOiGbo7IQ6j7rUsW-2" target="JPYUiOiGbo7IQ6j7rUsW-11">
          <mxGeometry relative="1" as="geometry" />
        </mxCell>
        <mxCell id="JPYUiOiGbo7IQ6j7rUsW-18" style="edgeStyle=orthogonalEdgeStyle;rounded=0;orthogonalLoop=1;jettySize=auto;html=1;entryX=0;entryY=0.5;entryDx=0;entryDy=0;" edge="1" parent="1" source="JPYUiOiGbo7IQ6j7rUsW-2" target="JPYUiOiGbo7IQ6j7rUsW-13">
          <mxGeometry relative="1" as="geometry" />
        </mxCell>
        <mxCell id="JPYUiOiGbo7IQ6j7rUsW-25" style="edgeStyle=orthogonalEdgeStyle;rounded=0;orthogonalLoop=1;jettySize=auto;html=1;entryX=0;entryY=0.5;entryDx=0;entryDy=0;" edge="1" parent="1" source="JPYUiOiGbo7IQ6j7rUsW-2" target="JPYUiOiGbo7IQ6j7rUsW-23">
          <mxGeometry relative="1" as="geometry" />
        </mxCell>
        <mxCell id="JPYUiOiGbo7IQ6j7rUsW-2" value="Giocatore" style="rounded=0;whiteSpace=wrap;html=1;" vertex="1" parent="1">
          <mxGeometry x="-30" y="210" width="120" height="60" as="geometry" />
        </mxCell>
        <mxCell id="JPYUiOiGbo7IQ6j7rUsW-9" style="edgeStyle=orthogonalEdgeStyle;rounded=0;orthogonalLoop=1;jettySize=auto;html=1;entryX=1;entryY=0.5;entryDx=0;entryDy=0;endArrow=block;endFill=1;" edge="1" parent="1" source="JPYUiOiGbo7IQ6j7rUsW-3" target="JPYUiOiGbo7IQ6j7rUsW-6">
          <mxGeometry relative="1" as="geometry" />
        </mxCell>
        <mxCell id="JPYUiOiGbo7IQ6j7rUsW-52" style="edgeStyle=orthogonalEdgeStyle;rounded=0;orthogonalLoop=1;jettySize=auto;html=1;entryX=0;entryY=0.5;entryDx=0;entryDy=0;" edge="1" parent="1" source="JPYUiOiGbo7IQ6j7rUsW-3" target="JPYUiOiGbo7IQ6j7rUsW-35">
          <mxGeometry relative="1" as="geometry" />
        </mxCell>
        <mxCell id="JPYUiOiGbo7IQ6j7rUsW-53" style="edgeStyle=orthogonalEdgeStyle;rounded=0;orthogonalLoop=1;jettySize=auto;html=1;entryX=0;entryY=0.5;entryDx=0;entryDy=0;" edge="1" parent="1" source="JPYUiOiGbo7IQ6j7rUsW-3" target="JPYUiOiGbo7IQ6j7rUsW-37">
          <mxGeometry relative="1" as="geometry" />
        </mxCell>
        <mxCell id="JPYUiOiGbo7IQ6j7rUsW-54" style="edgeStyle=orthogonalEdgeStyle;rounded=0;orthogonalLoop=1;jettySize=auto;html=1;entryX=0;entryY=0.5;entryDx=0;entryDy=0;" edge="1" parent="1" source="JPYUiOiGbo7IQ6j7rUsW-3" target="JPYUiOiGbo7IQ6j7rUsW-39">
          <mxGeometry relative="1" as="geometry" />
        </mxCell>
        <mxCell id="JPYUiOiGbo7IQ6j7rUsW-55" style="edgeStyle=orthogonalEdgeStyle;rounded=0;orthogonalLoop=1;jettySize=auto;html=1;entryX=0;entryY=0.5;entryDx=0;entryDy=0;" edge="1" parent="1" source="JPYUiOiGbo7IQ6j7rUsW-3" target="JPYUiOiGbo7IQ6j7rUsW-41">
          <mxGeometry relative="1" as="geometry" />
        </mxCell>
        <mxCell id="JPYUiOiGbo7IQ6j7rUsW-3" value="Personaggio" style="rounded=0;whiteSpace=wrap;html=1;" vertex="1" parent="1">
          <mxGeometry x="690" y="210" width="120" height="60" as="geometry" />
        </mxCell>
        <mxCell id="JPYUiOiGbo7IQ6j7rUsW-8" style="edgeStyle=orthogonalEdgeStyle;rounded=0;orthogonalLoop=1;jettySize=auto;html=1;entryX=1;entryY=0.5;entryDx=0;entryDy=0;" edge="1" parent="1" source="JPYUiOiGbo7IQ6j7rUsW-4" target="JPYUiOiGbo7IQ6j7rUsW-5">
          <mxGeometry relative="1" as="geometry" />
        </mxCell>
        <mxCell id="JPYUiOiGbo7IQ6j7rUsW-10" style="edgeStyle=orthogonalEdgeStyle;rounded=0;orthogonalLoop=1;jettySize=auto;html=1;entryX=0;entryY=0.5;entryDx=0;entryDy=0;endArrow=doubleBlock;endFill=1;" edge="1" parent="1" source="JPYUiOiGbo7IQ6j7rUsW-4" target="JPYUiOiGbo7IQ6j7rUsW-6">
          <mxGeometry relative="1" as="geometry" />
        </mxCell>
        <mxCell id="JPYUiOiGbo7IQ6j7rUsW-43" style="edgeStyle=orthogonalEdgeStyle;rounded=0;orthogonalLoop=1;jettySize=auto;html=1;entryX=0;entryY=0.5;entryDx=0;entryDy=0;" edge="1" parent="1" source="JPYUiOiGbo7IQ6j7rUsW-4" target="JPYUiOiGbo7IQ6j7rUsW-19">
          <mxGeometry relative="1" as="geometry" />
        </mxCell>
        <mxCell id="JPYUiOiGbo7IQ6j7rUsW-44" style="edgeStyle=orthogonalEdgeStyle;rounded=0;orthogonalLoop=1;jettySize=auto;html=1;entryX=0;entryY=0.5;entryDx=0;entryDy=0;" edge="1" parent="1" source="JPYUiOiGbo7IQ6j7rUsW-4" target="JPYUiOiGbo7IQ6j7rUsW-21">
          <mxGeometry relative="1" as="geometry" />
        </mxCell>
        <mxCell id="JPYUiOiGbo7IQ6j7rUsW-45" style="edgeStyle=orthogonalEdgeStyle;rounded=0;orthogonalLoop=1;jettySize=auto;html=1;entryX=0;entryY=0.5;entryDx=0;entryDy=0;" edge="1" parent="1" source="JPYUiOiGbo7IQ6j7rUsW-4" target="JPYUiOiGbo7IQ6j7rUsW-26">
          <mxGeometry relative="1" as="geometry" />
        </mxCell>
        <mxCell id="JPYUiOiGbo7IQ6j7rUsW-46" style="edgeStyle=orthogonalEdgeStyle;rounded=0;orthogonalLoop=1;jettySize=auto;html=1;entryX=0;entryY=0.5;entryDx=0;entryDy=0;" edge="1" parent="1" source="JPYUiOiGbo7IQ6j7rUsW-4" target="JPYUiOiGbo7IQ6j7rUsW-28">
          <mxGeometry relative="1" as="geometry" />
        </mxCell>
        <mxCell id="JPYUiOiGbo7IQ6j7rUsW-47" style="edgeStyle=orthogonalEdgeStyle;rounded=0;orthogonalLoop=1;jettySize=auto;html=1;entryX=0;entryY=0.5;entryDx=0;entryDy=0;" edge="1" parent="1" source="JPYUiOiGbo7IQ6j7rUsW-4" target="JPYUiOiGbo7IQ6j7rUsW-30">
          <mxGeometry relative="1" as="geometry" />
        </mxCell>
        <mxCell id="JPYUiOiGbo7IQ6j7rUsW-48" style="edgeStyle=orthogonalEdgeStyle;rounded=0;orthogonalLoop=1;jettySize=auto;html=1;entryX=0;entryY=0.5;entryDx=0;entryDy=0;" edge="1" parent="1" source="JPYUiOiGbo7IQ6j7rUsW-4" target="JPYUiOiGbo7IQ6j7rUsW-34">
          <mxGeometry relative="1" as="geometry" />
        </mxCell>
        <mxCell id="JPYUiOiGbo7IQ6j7rUsW-51" style="edgeStyle=orthogonalEdgeStyle;rounded=0;orthogonalLoop=1;jettySize=auto;html=1;entryX=0;entryY=0.5;entryDx=0;entryDy=0;" edge="1" parent="1" source="JPYUiOiGbo7IQ6j7rUsW-4" target="JPYUiOiGbo7IQ6j7rUsW-49">
          <mxGeometry relative="1" as="geometry" />
        </mxCell>
        <mxCell id="JPYUiOiGbo7IQ6j7rUsW-4" value="Squadra" style="rounded=0;whiteSpace=wrap;html=1;" vertex="1" parent="1">
          <mxGeometry x="320" y="210" width="120" height="60" as="geometry" />
        </mxCell>
        <mxCell id="JPYUiOiGbo7IQ6j7rUsW-5" value="compone" style="rhombus;whiteSpace=wrap;html=1;" vertex="1" parent="1">
          <mxGeometry x="170" y="200" width="80" height="80" as="geometry" />
        </mxCell>
        <mxCell id="JPYUiOiGbo7IQ6j7rUsW-6" value="compongono" style="rhombus;whiteSpace=wrap;html=1;" vertex="1" parent="1">
          <mxGeometry x="530" y="200" width="80" height="80" as="geometry" />
        </mxCell>
        <mxCell id="JPYUiOiGbo7IQ6j7rUsW-11" value="" style="ellipse;whiteSpace=wrap;html=1;aspect=fixed;strokeColor=#190033;fillColor=#1A1A1A;" vertex="1" parent="1">
          <mxGeometry x="70" y="300" width="20" height="20" as="geometry" />
        </mxCell>
        <mxCell id="JPYUiOiGbo7IQ6j7rUsW-12" value="Id" style="text;html=1;align=center;verticalAlign=middle;resizable=0;points=[];autosize=1;strokeColor=none;fillColor=none;" vertex="1" parent="1">
          <mxGeometry x="95" y="298" width="30" height="30" as="geometry" />
        </mxCell>
        <mxCell id="JPYUiOiGbo7IQ6j7rUsW-13" value="" style="ellipse;whiteSpace=wrap;html=1;aspect=fixed;" vertex="1" parent="1">
          <mxGeometry x="70" y="342" width="20" height="20" as="geometry" />
        </mxCell>
        <mxCell id="JPYUiOiGbo7IQ6j7rUsW-14" value="Nome" style="text;html=1;align=center;verticalAlign=middle;resizable=0;points=[];autosize=1;strokeColor=none;fillColor=none;" vertex="1" parent="1">
          <mxGeometry x="80" y="340" width="60" height="30" as="geometry" />
        </mxCell>
        <mxCell id="JPYUiOiGbo7IQ6j7rUsW-16" value="" style="endArrow=none;html=1;rounded=0;" edge="1" parent="1">
          <mxGeometry width="50" height="50" relative="1" as="geometry">
            <mxPoint x="660" y="270" as="sourcePoint" />
            <mxPoint x="660" y="220" as="targetPoint" />
            <Array as="points">
              <mxPoint x="660" y="240" />
            </Array>
          </mxGeometry>
        </mxCell>
        <mxCell id="JPYUiOiGbo7IQ6j7rUsW-17" value="" style="endArrow=none;html=1;rounded=0;" edge="1" parent="1">
          <mxGeometry width="50" height="50" relative="1" as="geometry">
            <mxPoint x="120" y="270" as="sourcePoint" />
            <mxPoint x="120" y="210" as="targetPoint" />
          </mxGeometry>
        </mxCell>
        <mxCell id="JPYUiOiGbo7IQ6j7rUsW-19" value="" style="ellipse;whiteSpace=wrap;html=1;aspect=fixed;strokeColor=#190033;fillColor=#000000;" vertex="1" parent="1">
          <mxGeometry x="400" y="282" width="20" height="20" as="geometry" />
        </mxCell>
        <mxCell id="JPYUiOiGbo7IQ6j7rUsW-20" value="Id" style="text;html=1;align=center;verticalAlign=middle;resizable=0;points=[];autosize=1;strokeColor=none;fillColor=none;" vertex="1" parent="1">
          <mxGeometry x="425" y="280" width="30" height="30" as="geometry" />
        </mxCell>
        <mxCell id="JPYUiOiGbo7IQ6j7rUsW-21" value="" style="ellipse;whiteSpace=wrap;html=1;aspect=fixed;" vertex="1" parent="1">
          <mxGeometry x="400" y="310" width="20" height="20" as="geometry" />
        </mxCell>
        <mxCell id="JPYUiOiGbo7IQ6j7rUsW-22" value="NomeSquadra" style="text;html=1;align=center;verticalAlign=middle;resizable=0;points=[];autosize=1;strokeColor=none;fillColor=none;" vertex="1" parent="1">
          <mxGeometry x="420" y="305" width="100" height="30" as="geometry" />
        </mxCell>
        <mxCell id="JPYUiOiGbo7IQ6j7rUsW-23" value="" style="ellipse;whiteSpace=wrap;html=1;aspect=fixed;" vertex="1" parent="1">
          <mxGeometry x="70" y="390" width="20" height="20" as="geometry" />
        </mxCell>
        <mxCell id="JPYUiOiGbo7IQ6j7rUsW-24" value="CreditiBudget" style="text;html=1;align=center;verticalAlign=middle;resizable=0;points=[];autosize=1;strokeColor=none;fillColor=none;" vertex="1" parent="1">
          <mxGeometry x="80" y="385" width="100" height="30" as="geometry" />
        </mxCell>
        <mxCell id="JPYUiOiGbo7IQ6j7rUsW-26" value="" style="ellipse;whiteSpace=wrap;html=1;aspect=fixed;strokeColor=#190033;fillColor=#190033;" vertex="1" parent="1">
          <mxGeometry x="400" y="342" width="20" height="20" as="geometry" />
        </mxCell>
        <mxCell id="JPYUiOiGbo7IQ6j7rUsW-27" value="Personaggio50ccRif" style="text;html=1;align=center;verticalAlign=middle;resizable=0;points=[];autosize=1;strokeColor=none;fillColor=none;" vertex="1" parent="1">
          <mxGeometry x="420" y="340" width="130" height="30" as="geometry" />
        </mxCell>
        <mxCell id="JPYUiOiGbo7IQ6j7rUsW-28" value="" style="ellipse;whiteSpace=wrap;html=1;aspect=fixed;fillColor=#000000;" vertex="1" parent="1">
          <mxGeometry x="400" y="370" width="20" height="20" as="geometry" />
        </mxCell>
        <mxCell id="JPYUiOiGbo7IQ6j7rUsW-29" value="Personaggio100ccRif" style="text;html=1;align=center;verticalAlign=middle;resizable=0;points=[];autosize=1;strokeColor=none;fillColor=none;" vertex="1" parent="1">
          <mxGeometry x="415" y="365" width="140" height="30" as="geometry" />
        </mxCell>
        <mxCell id="JPYUiOiGbo7IQ6j7rUsW-30" value="" style="ellipse;whiteSpace=wrap;html=1;aspect=fixed;fillColor=#190033;" vertex="1" parent="1">
          <mxGeometry x="400" y="400" width="20" height="20" as="geometry" />
        </mxCell>
        <mxCell id="JPYUiOiGbo7IQ6j7rUsW-31" value="Personaggio150ccRif" style="text;html=1;align=center;verticalAlign=middle;resizable=0;points=[];autosize=1;strokeColor=none;fillColor=none;" vertex="1" parent="1">
          <mxGeometry x="415" y="395" width="140" height="30" as="geometry" />
        </mxCell>
        <mxCell id="JPYUiOiGbo7IQ6j7rUsW-33" value="UtenteRif" style="text;html=1;align=center;verticalAlign=middle;resizable=0;points=[];autosize=1;strokeColor=none;fillColor=none;" vertex="1" parent="1">
          <mxGeometry x="435" y="425" width="70" height="30" as="geometry" />
        </mxCell>
        <mxCell id="JPYUiOiGbo7IQ6j7rUsW-34" value="" style="ellipse;whiteSpace=wrap;html=1;aspect=fixed;" vertex="1" parent="1">
          <mxGeometry x="400" y="430" width="20" height="20" as="geometry" />
        </mxCell>
        <mxCell id="JPYUiOiGbo7IQ6j7rUsW-35" value="" style="ellipse;whiteSpace=wrap;html=1;aspect=fixed;strokeColor=#000000;fillColor=#000000;" vertex="1" parent="1">
          <mxGeometry x="790" y="303" width="20" height="20" as="geometry" />
        </mxCell>
        <mxCell id="JPYUiOiGbo7IQ6j7rUsW-36" value="Id" style="text;html=1;align=center;verticalAlign=middle;resizable=0;points=[];autosize=1;strokeColor=none;fillColor=none;" vertex="1" parent="1">
          <mxGeometry x="815" y="298" width="30" height="30" as="geometry" />
        </mxCell>
        <mxCell id="JPYUiOiGbo7IQ6j7rUsW-37" value="" style="ellipse;whiteSpace=wrap;html=1;aspect=fixed;strokeColor=#000000;fillColor=#000000;" vertex="1" parent="1">
          <mxGeometry x="790" y="337" width="20" height="20" as="geometry" />
        </mxCell>
        <mxCell id="JPYUiOiGbo7IQ6j7rUsW-38" value="Nome" style="text;html=1;align=center;verticalAlign=middle;resizable=0;points=[];autosize=1;strokeColor=none;fillColor=none;" vertex="1" parent="1">
          <mxGeometry x="800" y="335" width="60" height="30" as="geometry" />
        </mxCell>
        <mxCell id="JPYUiOiGbo7IQ6j7rUsW-39" value="" style="ellipse;whiteSpace=wrap;html=1;aspect=fixed;" vertex="1" parent="1">
          <mxGeometry x="790" y="370" width="20" height="20" as="geometry" />
        </mxCell>
        <mxCell id="JPYUiOiGbo7IQ6j7rUsW-40" value="Categoria" style="text;html=1;align=center;verticalAlign=middle;resizable=0;points=[];autosize=1;strokeColor=none;fillColor=none;" vertex="1" parent="1">
          <mxGeometry x="810" y="365" width="80" height="30" as="geometry" />
        </mxCell>
        <mxCell id="JPYUiOiGbo7IQ6j7rUsW-41" value="" style="ellipse;whiteSpace=wrap;html=1;aspect=fixed;" vertex="1" parent="1">
          <mxGeometry x="790" y="405" width="20" height="20" as="geometry" />
        </mxCell>
        <mxCell id="JPYUiOiGbo7IQ6j7rUsW-42" value="Costo" style="text;html=1;align=center;verticalAlign=middle;resizable=0;points=[];autosize=1;strokeColor=none;fillColor=none;" vertex="1" parent="1">
          <mxGeometry x="815" y="398" width="50" height="30" as="geometry" />
        </mxCell>
        <mxCell id="JPYUiOiGbo7IQ6j7rUsW-49" value="" style="ellipse;whiteSpace=wrap;html=1;aspect=fixed;" vertex="1" parent="1">
          <mxGeometry x="400" y="460" width="20" height="20" as="geometry" />
        </mxCell>
        <mxCell id="JPYUiOiGbo7IQ6j7rUsW-50" value="CostoSquadra" style="text;html=1;align=center;verticalAlign=middle;resizable=0;points=[];autosize=1;strokeColor=none;fillColor=none;" vertex="1" parent="1">
          <mxGeometry x="415" y="455" width="100" height="30" as="geometry" />
        </mxCell>
      </root>
    </mxGraphModel>
  </diagram>
</mxfile>
